<svg width="8" height="8" viewBox="0 0 8 8" fill="none" xmlns="http://www.w3.org/2000/svg">
    <path fill-rule="evenodd" clip-rule="evenodd" d="M0.133463 7.86654C-0.0444877 7.68859 -0.0444875 7.40007 0.133463 7.22212L6.44417 0.911412L2.389 0.911341C2.13734 0.911336 1.93333 0.707323 1.93334 0.455662C1.93334 0.204002 2.13736 -4.60914e-06 2.38902 0L7.54425 8.97262e-05C7.7959 9.40281e-05 7.99991 0.204098 7.99991 0.455752L8 5.61098C8 5.86264 7.796 6.06666 7.54434 6.06666C7.29268 6.06667 7.08866 5.86266 7.08866 5.611L7.08859 1.55583L0.777878 7.86654C0.599928 8.04449 0.311413 8.04449 0.133463 7.86654Z" fill="#89E065"/>
</svg>
