<svg width="21" height="17" viewBox="0 0 21 17" fill="none" xmlns="http://www.w3.org/2000/svg">
    <path fill-rule="evenodd" clip-rule="evenodd" d="M10.3842 5L9.35848 3.29052C9.09821 2.85673 8.70501 2.60867 8.31195 2.55857C7.55478 2.46205 6.61079 2.375 5.6875 2.375C5.04588 2.375 4.39128 2.41709 3.79282 2.476C3.24191 2.53023 2.83525 2.93948 2.79135 3.51184C2.70347 4.65753 2.625 6.29732 2.625 8.5C2.625 10.051 2.68149 11.4326 2.75324 12.5614C2.82022 13.6151 3.61924 14.4104 4.68107 14.4716C6.12192 14.5547 8.06155 14.625 10.5 14.625C12.9384 14.625 14.8781 14.5547 16.3189 14.4716C17.3808 14.4104 18.1798 13.6151 18.2468 12.5614C18.3185 11.4326 18.375 10.051 18.375 8.5C18.375 7.65463 18.326 6.85213 18.2612 6.16193C18.2077 5.5923 17.7827 5.16735 17.2131 5.11383C16.5229 5.04899 15.7204 5 14.875 5H10.3842ZM11.375 3.25L10.8591 2.39015C10.3517 1.54457 9.51143 0.947309 8.53324 0.822615C7.7339 0.72072 6.7107 0.625 5.6875 0.625C4.97343 0.625 4.25936 0.671619 3.62138 0.734421C2.21523 0.872841 1.15454 1.96918 1.04647 3.37799C0.954938 4.57133 0.875 6.25588 0.875 8.5C0.875 10.093 0.933001 11.5119 1.00677 12.6724C1.13011 14.613 2.63911 16.1068 4.58033 16.2187C6.05467 16.3037 8.0279 16.375 10.5 16.375C12.9721 16.375 14.9453 16.3037 16.4197 16.2187C18.3609 16.1068 19.8699 14.613 19.9932 12.6724C20.067 11.5119 20.125 10.093 20.125 8.5C20.125 7.58901 20.0723 6.73071 20.0035 5.99824C19.8713 4.59149 18.7835 3.50366 17.3768 3.3715C16.6443 3.30269 15.786 3.25 14.875 3.25H11.375Z" fill="#717887"/>
</svg>
