<svg width="22" height="22" viewBox="0 0 22 22" fill="none" xmlns="http://www.w3.org/2000/svg">
    <path fill-rule="evenodd" clip-rule="evenodd" d="M1.83366 14.667C1.3274 14.667 0.916992 15.0774 0.916992 15.5837C0.916992 16.0899 1.3274 16.5003 1.83366 16.5003H11.917C12.4233 16.5003 12.8337 16.0899 12.8337 15.5837C12.8337 15.0774 12.4233 14.667 11.917 14.667H1.83366ZM17.417 14.667C16.9107 14.667 16.5003 15.0774 16.5003 15.5837C16.5003 16.0899 16.9107 16.5003 17.417 16.5003H20.167C20.6733 16.5003 21.0837 16.0899 21.0837 15.5837C21.0837 15.0774 20.6733 14.667 20.167 14.667H17.417Z" fill="white"/>
    <path fill-rule="evenodd" clip-rule="evenodd" d="M14.6667 17.417C15.6792 17.417 16.5 16.5962 16.5 15.5837C16.5 14.5711 15.6792 13.7503 14.6667 13.7503C13.6541 13.7503 12.8333 14.5711 12.8333 15.5837C12.8333 16.5962 13.6541 17.417 14.6667 17.417ZM14.6667 19.2503C16.6917 19.2503 18.3333 17.6087 18.3333 15.5837C18.3333 13.5586 16.6917 11.917 14.6667 11.917C12.6416 11.917 11 13.5586 11 15.5837C11 17.6087 12.6416 19.2503 14.6667 19.2503Z" fill="white"/>
    <path fill-rule="evenodd" clip-rule="evenodd" d="M1.83366 5.5C1.3274 5.5 0.916992 5.91041 0.916992 6.41667C0.916992 6.92293 1.3274 7.33333 1.83366 7.33333H4.58366C5.08992 7.33333 5.50033 6.92293 5.50033 6.41667C5.50033 5.91041 5.08992 5.5 4.58366 5.5H1.83366ZM10.0837 5.5C9.5774 5.5 9.16699 5.91041 9.16699 6.41667C9.16699 6.92293 9.5774 7.33333 10.0837 7.33333H20.167C20.6733 7.33333 21.0837 6.92293 21.0837 6.41667C21.0837 5.91041 20.6733 5.5 20.167 5.5H10.0837Z" fill="white"/>
    <path fill-rule="evenodd" clip-rule="evenodd" d="M7.33366 8.25C8.34618 8.25 9.16699 7.42919 9.16699 6.41667C9.16699 5.40415 8.34618 4.58333 7.33366 4.58333C6.32114 4.58333 5.50033 5.40415 5.50033 6.41667C5.50033 7.42919 6.32114 8.25 7.33366 8.25ZM7.33366 10.0833C9.3587 10.0833 11.0003 8.44171 11.0003 6.41667C11.0003 4.39162 9.3587 2.75 7.33366 2.75C5.30861 2.75 3.66699 4.39162 3.66699 6.41667C3.66699 8.44171 5.30861 10.0833 7.33366 10.0833Z" fill="white"/>
</svg>
