<svg width="12" height="12" viewBox="0 0 12 12" fill="none" xmlns="http://www.w3.org/2000/svg">
    <path d="M10.869 1.13102C9.36093 -0.377018 6.9072 -0.376993 5.39916 1.13102C4.36917 2.161 4.01151 3.67926 4.45732 5.05639L0.103011 9.41065C0.0370484 9.47659 0 9.56602 0 9.65937V11.6483C0 11.8426 0.157428 12 0.351614 12H2.34067C2.43395 12 2.52334 11.963 2.58931 11.8969L3.08666 11.3996C3.16262 11.3237 3.1997 11.2171 3.18728 11.1104L3.12522 10.5764L3.86547 10.5067C4.03356 10.4908 4.16669 10.3576 4.18253 10.1896L4.25236 9.4493L4.78638 9.51133C4.88608 9.52295 4.98587 9.49137 5.06083 9.42467C5.13574 9.35798 5.17861 9.26236 5.17861 9.16206V8.50724H5.8215C5.91406 8.50724 6.00286 8.47074 6.0687 8.40568L6.94226 7.54223C8.31971 7.98873 9.83879 7.63114 10.869 6.60083C12.377 5.09282 12.377 2.63902 10.869 1.13102ZM10.3717 6.1036C9.48435 6.99107 8.15297 7.26807 6.98029 6.8094C6.85086 6.7588 6.7038 6.78913 6.60502 6.8868L5.67705 7.80404H4.82697C4.6328 7.80404 4.47537 7.96147 4.47537 8.1557V8.7672L3.97661 8.70922C3.88265 8.69836 3.78829 8.72577 3.71477 8.78526C3.64126 8.84476 3.59481 8.93128 3.58593 9.02552L3.50969 9.83381L2.70142 9.90998C2.60725 9.91882 2.52064 9.9653 2.46111 10.0388C2.4016 10.1123 2.37421 10.2067 2.38513 10.3007L2.46908 11.0227L2.195 11.2968H0.703204V9.80501L5.11174 5.3965C5.2105 5.29773 5.24146 5.14987 5.19058 5.01979C4.73187 3.84702 5.00891 2.51582 5.89639 1.62831C7.13029 0.394469 9.13786 0.394469 10.3717 1.62831C11.6056 2.86214 11.6056 4.86976 10.3717 6.1036Z" fill="black"/>
    <path d="M9.87341 2.12586C9.46225 1.71455 8.7929 1.71457 8.38174 2.12586C7.97041 2.53714 7.97041 3.20635 8.38174 3.61763C8.7929 4.0289 9.46225 4.02895 9.87341 3.61763C10.2847 3.20635 10.2847 2.53714 9.87341 2.12586ZM9.37622 3.12038C9.23917 3.25747 9.0161 3.25749 8.87892 3.12038C8.74186 2.98329 8.74186 2.76024 8.87892 2.62312C9.01648 2.48569 9.23879 2.48569 9.37622 2.62312C9.51366 2.76057 9.51366 2.98295 9.37622 3.12038Z" fill="black"/>
</svg>
