<svg width="8" height="9" viewBox="0 0 8 9" fill="none" xmlns="http://www.w3.org/2000/svg">
<path fill-rule="evenodd" clip-rule="evenodd" d="M0.292893 8.20711C-0.0976311 7.81658 -0.0976312 7.18342 0.292893 6.79289L2.58579 4.5L0.292893 2.20711C-0.0976314 1.81658 -0.0976314 1.18342 0.292893 0.792894C0.683417 0.402369 1.31658 0.402369 1.70711 0.792894L4 3.08579L6.29289 0.792894C6.68342 0.402369 7.31658 0.402369 7.70711 0.792894C8.09763 1.18342 8.09763 1.81658 7.70711 2.20711L5.41421 4.5L7.70711 6.79289C8.09763 7.18342 8.09763 7.81658 7.70711 8.20711C7.31658 8.59763 6.68342 8.59763 6.29289 8.20711L4 5.91421L1.70711 8.20711C1.31658 8.59763 0.683418 8.59763 0.292893 8.20711Z" fill="#717887"/>
</svg>
