<svg width="12" height="12" viewBox="0 0 12 12" fill="none" xmlns="http://www.w3.org/2000/svg">
    <path fill-rule="evenodd" clip-rule="evenodd" d="M2.5 4.5L2.90665 10.5998C2.95918 11.3877 3.61363 12 4.40333 12H7.59667C8.38637 12 9.04082 11.3877 9.09335 10.5998L9.5 4.5H2.5ZM3.56889 5.5L3.90444 10.5333C3.92195 10.7959 4.1401 11 4.40333 11H7.59667C7.8599 11 8.07805 10.7959 8.09556 10.5333L8.43111 5.5H3.56889Z" fill="white"/>
    <path fill-rule="evenodd" clip-rule="evenodd" d="M2.61903 2.28583L2.7911 1.2534C2.91165 0.530119 3.53743 0 4.27069 0H7.72931C8.46257 0 9.08835 0.530119 9.2089 1.2534L9.38097 2.28583C9.75611 2.55849 10 3.00076 10 3.5V4C10 4.82843 9.32843 5.5 8.5 5.5H3.5C2.67157 5.5 2 4.82843 2 4V3.5C2 3.00076 2.24389 2.55849 2.61903 2.28583ZM4.27069 1H7.72931C7.97373 1 8.18232 1.17671 8.22251 1.4178L8.31954 2H3.68046L3.77749 1.4178C3.81768 1.17671 4.02627 1 4.27069 1ZM3.5 3C3.22386 3 3 3.22386 3 3.5V4C3 4.27614 3.22386 4.5 3.5 4.5H8.5C8.77614 4.5 9 4.27614 9 4V3.5C9 3.22386 8.77614 3 8.5 3H3.5Z" fill="white"/>
</svg>
