<svg width="18" height="14" viewBox="0 0 18 14" fill="none" xmlns="http://www.w3.org/2000/svg">
    <path fill-rule="evenodd" clip-rule="evenodd" d="M14.7778 1.55556H2.33333C1.90378 1.55556 1.55556 1.90378 1.55556 2.33333V11.6667C1.55556 12.0962 1.90378 12.4444 2.33333 12.4444H14.7778C15.2073 12.4444 15.5556 12.0962 15.5556 11.6667V2.33333C15.5556 1.90378 15.2073 1.55556 14.7778 1.55556ZM2.33333 0C1.04467 0 0 1.04467 0 2.33333V11.6667C0 12.9553 1.04467 14 2.33333 14H14.7778C16.0664 14 17.1111 12.9553 17.1111 11.6667V2.33333C17.1111 1.04467 16.0664 0 14.7778 0H2.33333Z" fill="#172C4E"/>
    <path fill-rule="evenodd" clip-rule="evenodd" d="M3.29138 3.39097C3.56638 3.06097 4.05682 3.01639 4.38681 3.29138L8.05764 6.35041C8.34607 6.59077 8.76504 6.59077 9.05348 6.3504L12.7243 3.29138C13.0543 3.01639 13.5447 3.06097 13.8197 3.39097C14.0947 3.72096 14.0501 4.2114 13.7201 4.48639L10.0493 7.54541C9.18401 8.2665 7.9271 8.26651 7.06179 7.54542L3.39097 4.48639C3.06097 4.2114 3.01639 3.72096 3.29138 3.39097Z" fill="#172C4E"/>
</svg>
