<svg width="23" height="23" viewBox="0 0 23 23" fill="none" xmlns="http://www.w3.org/2000/svg">
    <path fill-rule="evenodd" clip-rule="evenodd" d="M11.5013 19.167C15.7355 19.167 19.168 15.7345 19.168 11.5003C19.168 7.26614 15.7355 3.83366 11.5013 3.83366C7.26712 3.83366 3.83464 7.26614 3.83464 11.5003C3.83464 15.7345 7.26712 19.167 11.5013 19.167ZM11.5013 21.0837C16.794 21.0837 21.0846 16.7931 21.0846 11.5003C21.0846 6.2076 16.794 1.91699 11.5013 1.91699C6.20857 1.91699 1.91797 6.2076 1.91797 11.5003C1.91797 16.7931 6.20857 21.0837 11.5013 21.0837Z" fill="#172C4E"/>
    <path fill-rule="evenodd" clip-rule="evenodd" d="M10.6689 9.10454C10.4039 9.56268 9.81763 9.71923 9.35949 9.45421C8.90135 9.18919 8.74479 8.60295 9.00981 8.14481C9.50547 7.28797 10.4342 6.70801 11.4996 6.70801C13.0874 6.70801 14.3746 7.99519 14.3746 9.58301C14.3746 10.635 13.7293 11.4939 12.9371 11.9788C12.3008 12.3684 12.6975 13.4163 11.4971 13.4163C10.9678 13.4163 10.5388 12.9873 10.5388 12.458C10.5388 12.4244 10.5405 12.3911 10.5439 12.3584C10.5705 11.8515 10.7964 11.4391 11.0425 11.1393C11.3024 10.8226 11.6441 10.5641 11.9053 10.4088C13.3588 9.54467 11.586 7.77693 10.6689 9.10454ZM11.4971 14.3747C10.9678 14.3747 10.5388 14.8037 10.5388 15.333C10.5388 15.8623 10.9678 16.2913 11.4971 16.2913C12.0264 16.2913 12.4554 15.8623 12.4554 15.333C12.4554 14.8037 12.0264 14.3747 11.4971 14.3747Z" fill="#172C4E"/>
</svg>
