<svg width="24" height="24" viewBox="0 0 24 24" fill="none" xmlns="http://www.w3.org/2000/svg">
    <path fill-rule="evenodd" clip-rule="evenodd" d="M17.0498 14.3C16.5524 14.3 15.8495 14.3688 15.1179 14.469C14.7761 14.5158 14.5154 14.7764 14.4686 15.1182C14.3684 15.8499 14.2996 16.5526 14.2996 17.05C14.2996 17.5474 14.3684 18.2502 14.4686 18.9818C14.5154 19.3236 14.7761 19.5842 15.1179 19.6311C15.8495 19.7313 16.5524 19.8 17.0498 19.8C17.5472 19.8 18.25 19.7313 18.9817 19.6311C19.3235 19.5842 19.5841 19.3236 19.6309 18.9818C19.7311 18.2502 19.7999 17.5474 19.7999 17.05C19.7999 16.5526 19.7311 15.8499 19.6309 15.1182C19.5841 14.7764 19.3235 14.5158 18.9817 14.469C18.25 14.3688 17.5472 14.3 17.0498 14.3ZM14.8193 12.2894C13.4994 12.4701 12.4696 13.4998 12.2889 14.8197C12.1852 15.5767 12.0995 16.399 12.0995 17.05C12.0995 17.701 12.1852 18.5233 12.2889 19.2803C12.4696 20.6002 13.4994 21.6299 14.8193 21.8107C15.5764 21.9144 16.3987 22 17.0498 22C17.7008 22 18.5231 21.9144 19.2802 21.8107C20.6001 21.6299 21.6299 20.6002 21.8107 19.2803C21.9144 18.5233 22 17.701 22 17.05C22 16.399 21.9144 15.5767 21.8107 14.8197C21.6299 13.4998 20.6001 12.4701 19.2802 12.2894C18.5231 12.1857 17.7008 12.1001 17.0498 12.1001C16.3987 12.1001 15.5764 12.1857 14.8193 12.2894Z" fill="white"/>
    <path fill-rule="evenodd" clip-rule="evenodd" d="M4.95023 14.3C4.45281 14.3 3.74999 14.3688 3.01833 14.469C2.67651 14.5158 2.41588 14.7764 2.36906 15.1182C2.26886 15.8499 2.2001 16.5526 2.2001 17.05C2.2001 17.5474 2.26886 18.2502 2.36906 18.9818C2.41588 19.3236 2.67651 19.5842 3.01833 19.6311C3.74999 19.7313 4.45281 19.8 4.95023 19.8C5.44765 19.8 6.15046 19.7313 6.88212 19.6311C7.22394 19.5842 7.48458 19.3236 7.53139 18.9818C7.63159 18.2502 7.70035 17.5474 7.70035 17.05C7.70035 16.5526 7.63159 15.8499 7.53139 15.1182C7.48458 14.7764 7.22394 14.5158 6.88212 14.469C6.15046 14.3688 5.44765 14.3 4.95023 14.3ZM2.7198 12.2894C1.39985 12.4701 0.370083 13.4998 0.18931 14.8197C0.0856263 15.5767 0 16.399 0 17.05C0 17.701 0.0856263 18.5233 0.18931 19.2803C0.370083 20.6002 1.39985 21.6299 2.7198 21.8107C3.47687 21.9144 4.29917 22 4.95023 22C5.60128 22 6.42358 21.9144 7.18065 21.8107C8.5006 21.6299 9.53037 20.6002 9.71115 19.2803C9.81483 18.5233 9.90045 17.701 9.90045 17.05C9.90045 16.399 9.81483 15.5767 9.71115 14.8197C9.53037 13.4998 8.5006 12.4701 7.18065 12.2894C6.42358 12.1857 5.60128 12.1001 4.95023 12.1001C4.29917 12.1001 3.47687 12.1857 2.7198 12.2894Z" fill="white"/>
    <path fill-rule="evenodd" clip-rule="evenodd" d="M17.0498 2.19999C16.5524 2.19999 15.8495 2.26874 15.1179 2.36894C14.7761 2.41575 14.5154 2.67638 14.4686 3.01817C14.3684 3.7498 14.2996 4.45258 14.2996 4.94997C14.2996 5.44737 14.3684 6.15015 14.4686 6.88177C14.5154 7.22357 14.7761 7.48419 15.1179 7.531C15.8495 7.6312 16.5524 7.69996 17.0498 7.69996C17.5472 7.69996 18.25 7.6312 18.9817 7.531C19.3235 7.48419 19.5841 7.22357 19.6309 6.88177C19.7311 6.15015 19.7999 5.44737 19.7999 4.94997C19.7999 4.45258 19.7311 3.7498 19.6309 3.01817C19.5841 2.67638 19.3235 2.41575 18.9817 2.36894C18.25 2.26874 17.5472 2.19999 17.0498 2.19999ZM14.8193 0.1893C13.4994 0.370063 12.4696 1.39978 12.2889 2.71966C12.1852 3.47669 12.0995 4.29895 12.0995 4.94997C12.0995 5.60099 12.1852 6.42325 12.2889 7.18028C12.4696 8.50016 13.4994 9.52988 14.8193 9.71064C15.5764 9.81432 16.3987 9.89994 17.0498 9.89994C17.7008 9.89994 18.5231 9.81432 19.2802 9.71064C20.6001 9.52988 21.6299 8.50016 21.8107 7.18028C21.9144 6.42325 22 5.60099 22 4.94997C22 4.29895 21.9144 3.47669 21.8107 2.71966C21.6299 1.39978 20.6001 0.370063 19.2802 0.1893C18.5231 0.0856218 17.7008 0 17.0498 0C16.3987 0 15.5764 0.0856218 14.8193 0.1893Z" fill="white"/>
    <path fill-rule="evenodd" clip-rule="evenodd" d="M4.95023 2.19999C4.45281 2.19999 3.74999 2.26874 3.01833 2.36894C2.67651 2.41575 2.41588 2.67638 2.36906 3.01817C2.26886 3.7498 2.2001 4.45258 2.2001 4.94997C2.2001 5.44737 2.26886 6.15015 2.36906 6.88177C2.41588 7.22357 2.67651 7.48419 3.01833 7.531C3.74999 7.6312 4.45281 7.69996 4.95023 7.69996C5.44765 7.69996 6.15046 7.6312 6.88212 7.531C7.22394 7.48419 7.48458 7.22357 7.53139 6.88177C7.63159 6.15015 7.70035 5.44737 7.70035 4.94997C7.70035 4.45258 7.63159 3.7498 7.53139 3.01817C7.48458 2.67638 7.22394 2.41575 6.88212 2.36894C6.15046 2.26874 5.44765 2.19999 4.95023 2.19999ZM2.7198 0.1893C1.39985 0.370063 0.370083 1.39978 0.18931 2.71966C0.0856263 3.47669 0 4.29895 0 4.94997C0 5.60099 0.0856263 6.42325 0.18931 7.18028C0.370083 8.50016 1.39985 9.52988 2.7198 9.71064C3.47687 9.81432 4.29917 9.89994 4.95023 9.89994C5.60128 9.89994 6.42358 9.81432 7.18065 9.71064C8.5006 9.52988 9.53037 8.50016 9.71115 7.18028C9.81483 6.42325 9.90045 5.60099 9.90045 4.94997C9.90045 4.29895 9.81483 3.47669 9.71115 2.71966C9.53037 1.39978 8.5006 0.370063 7.18065 0.1893C6.42358 0.0856218 5.60128 0 4.95023 0C4.29917 0 3.47687 0.0856218 2.7198 0.1893Z" fill="white"/>
</svg>
