<svg width="24" height="24" viewBox="0 0 24 24" fill="none" xmlns="http://www.w3.org/2000/svg">
<g clip-path="url(#clip0_16_664)">
<mask id="mask0_16_664" style="mask-type:luminance" maskUnits="userSpaceOnUse" x="0" y="0" width="24" height="24">
<path d="M23.9851 0H0V23.9851H23.9851V0Z" fill="white"/>
</mask>
<g mask="url(#mask0_16_664)">
<path d="M22.1372 15.0672C21.8073 15.0672 21.5399 15.3346 21.5399 15.6646V20.9684C21.5387 21.9578 20.7372 22.7595 19.7478 22.7605H2.98676C1.9974 22.7595 1.19587 21.9578 1.1947 20.9684V5.40206C1.19587 4.41291 1.9974 3.61116 2.98676 3.60999H8.29059C8.62053 3.60999 8.88794 3.34258 8.88794 3.01264C8.88794 2.68293 8.62053 2.41528 8.29059 2.41528H2.98676C1.33798 2.41715 0.00186672 3.75326 0 5.40206V20.9687C0.00186672 22.6175 1.33798 23.9536 2.98676 23.9554H19.7478C21.3967 23.9536 22.7328 22.6175 22.7346 20.9687V15.6646C22.7346 15.3346 22.4672 15.0672 22.1372 15.0672Z" fill="black"/>
<path d="M22.4981 0.878292C21.4483 -0.171508 19.7464 -0.171508 18.6966 0.878292L8.03942 11.5354C7.96639 11.6084 7.91368 11.699 7.88614 11.7984L6.48467 16.8579C6.42707 17.0654 6.48561 17.2875 6.63778 17.4399C6.79012 17.592 7.01227 17.6506 7.2197 17.5932L12.2792 16.1915C12.3786 16.164 12.4692 16.1112 12.5422 16.0382L23.1991 5.38082C24.2473 4.33033 24.2473 2.62975 23.1991 1.57924L22.4981 0.878292ZM9.34103 11.9237L18.063 3.20143L20.876 6.01437L12.1537 14.7366L9.34103 11.9237ZM8.77912 13.0512L11.0264 15.2987L7.91785 16.16L8.77912 13.0512ZM22.3544 4.53615L21.7209 5.16966L18.9077 2.3565L19.5415 1.72298C20.1246 1.13987 21.0701 1.13987 21.6532 1.72298L22.3544 2.42394C22.9366 3.00776 22.9366 3.95255 22.3544 4.53615Z" fill="black"/>
</g>
</g>
<defs>
<clipPath id="clip0_16_664">
<rect width="24" height="24" fill="white"/>
</clipPath>
</defs>
</svg>
