<svg width="14" height="18" viewBox="0 0 14 18" fill="none" xmlns="http://www.w3.org/2000/svg">
    <path fill-rule="evenodd" clip-rule="evenodd" d="M7 7.77778C5.62132 7.77778 4.39323 7.82799 3.38985 7.89177C2.43811 7.95227 1.70628 8.67843 1.63798 9.62344C1.58939 10.2957 1.55556 11.004 1.55556 11.6667C1.55556 12.3293 1.58939 13.0376 1.63798 13.7099C1.70628 14.6549 2.43811 15.3811 3.38985 15.4416C4.39323 15.5053 5.62132 15.5556 7 15.5556C8.37868 15.5556 9.60677 15.5053 10.6102 15.4416C11.5619 15.3811 12.2937 14.6549 12.362 13.7099C12.4106 13.0376 12.4444 12.3293 12.4444 11.6667C12.4444 11.004 12.4106 10.2957 12.362 9.62344C12.2937 8.67843 11.5619 7.95227 10.6102 7.89177C9.60677 7.82799 8.37868 7.77778 7 7.77778ZM3.29117 6.33935C1.56626 6.44899 0.211069 7.7874 0.0864694 9.5113C0.0361801 10.2071 0 10.955 0 11.6667C0 12.3784 0.0361802 13.1263 0.0864694 13.822C0.211069 15.5459 1.56626 16.8843 3.29117 16.994C4.32272 17.0596 5.58402 17.1111 7 17.1111C8.41598 17.1111 9.67728 17.0596 10.7088 16.994C12.4337 16.8843 13.7889 15.5459 13.9135 13.822C13.9638 13.1263 14 12.3784 14 11.6667C14 10.955 13.9638 10.2071 13.9135 9.5113C13.7889 7.7874 12.4337 6.44899 10.7088 6.33935C9.67728 6.27378 8.41598 6.22222 7 6.22222C5.58402 6.22222 4.32272 6.27378 3.29117 6.33935Z" fill="#172C4E"/>
    <path fill-rule="evenodd" clip-rule="evenodd" d="M7.77778 12.2363C8.24273 11.9674 8.55556 11.4647 8.55556 10.8889C8.55556 10.0298 7.85911 9.33333 7 9.33333C6.14089 9.33333 5.44444 10.0298 5.44444 10.8889C5.44444 11.4647 5.75727 11.9674 6.22222 12.2363V13.2222C6.22222 13.6518 6.57045 14 7 14C7.42956 14 7.77778 13.6518 7.77778 13.2222V12.2363Z" fill="#172C4E"/>
    <path fill-rule="evenodd" clip-rule="evenodd" d="M3.11111 3.88889C3.11111 1.74111 4.85223 0 7 0C9.14777 0 10.8889 1.74111 10.8889 3.88889V7C10.8889 7.42955 10.5407 7.77778 10.1111 7.77778C9.68156 7.77778 9.33333 7.42955 9.33333 7V3.88889C9.33333 2.60022 8.28866 1.55556 7 1.55556C5.71134 1.55556 4.66667 2.60022 4.66667 3.88889V7C4.66667 7.42955 4.31844 7.77778 3.88889 7.77778C3.45933 7.77778 3.11111 7.42955 3.11111 7V3.88889Z" fill="#172C4E"/>
</svg>
