<svg width="12" height="12" viewBox="0 0 12 12" fill="none" xmlns="http://www.w3.org/2000/svg">
    <g clip-path="url(#clip0_1_19181)">
        <path fill-rule="evenodd" clip-rule="evenodd" d="M-1.96701e-07 6C-1.78969e-07 5.72386 0.223857 5.5 0.5 5.5L10.2929 5.5L7.14658 2.35355C6.95132 2.15828 6.95133 1.8417 7.14659 1.64644C7.34186 1.45118 7.65844 1.45119 7.8537 1.64645L11.8536 5.64645C12.0488 5.84171 12.0488 6.15829 11.8536 6.35355L7.8537 10.3535C7.65844 10.5488 7.34186 10.5488 7.14659 10.3536C6.95133 10.1583 6.95132 9.84172 7.14658 9.64645L10.2929 6.5L0.5 6.5C0.223857 6.5 -1.84631e-07 6.27614 -1.96701e-07 6Z" fill="white"/>
    </g>
    <defs>
        <clipPath id="clip0_1_19181">
            <rect width="12" height="12" fill="white"/>
        </clipPath>
    </defs>
</svg>
