<svg id="Capa_1" enable-background="new 0 0 512 512" height="512" viewBox="0 0 512 512" width="512"
    xmlns="http://www.w3.org/2000/svg">
    <g>
        <path
            d="m206.76 123.71 25.47 19.98c9.86 7.74 24.3.71 24.3-11.82v-116.87c0-8.284-6.716-15-15-15h-122.4c-13.4 0-20.1 16.2-10.62 25.67l12.79 12.76c-64.49 39.99-109.89 107.74-119.42 186.51h116.52c10.5-46.71 44.18-84.67 88.36-101.23z" />
        <path
            d="m486.36 108.21-12.21 12.18c-40.32-64.31-108.47-109.46-187.62-118.66v116.17c47.05 10.13 85.4 43.59 102.28 87.65l-21.49 25.8c-8.16 9.79-1.2 24.65 11.54 24.65h118.14c8.28 0 15-6.72 15-15v-122.15c0-13.38-16.17-20.09-25.64-10.64z" />
        <path
            d="m256.53 397.28c-.18 0-.35 0-.53-.01-60.73-.21-112.44-38.61-132.33-92.36l21.06-25.33c8.15-9.8 1.18-24.64-11.55-24.64h-118.171c-8.284 0-14.999 6.715-15 14.999l-.009 122.151c0 13.38 16.17 20.09 25.64 10.64l12.46-12.43c45.09 72.89 125.8 121.51 217.9 121.7h.53c65.124 0 124.578-24.222 169.814-64.119 6.468-5.705 6.71-15.718.605-21.81l-60.232-60.114c-5.464-5.454-14.171-5.863-20.129-.954-24.468 20.162-55.85 32.277-90.058 32.277z" />
    </g>
</svg>