<svg width="12" height="12" viewBox="0 0 12 12" fill="none" xmlns="http://www.w3.org/2000/svg">
    <path
        d="M11.7804 3.31082L9.74985 5.34132C9.60345 5.48778 9.41145 5.561 9.21945 5.561C9.0276 5.561 8.8356 5.48778 8.6892 5.34132C8.39628 5.04843 8.39628 4.57356 8.6892 4.28066L9.43935 3.53049H1.57617C1.16196 3.53049 0.826166 3.19472 0.826166 2.78051C0.826166 2.3663 1.16196 2.03051 1.57617 2.03051H9.43935L8.6892 1.28034C8.39628 0.987438 8.39628 0.512569 8.6892 0.219679C8.982 -0.0732262 9.4569 -0.0732262 9.74985 0.219679L11.7804 2.25018C12.0732 2.54306 12.0732 3.01794 11.7804 3.31082ZM10.0137 8.46945H2.56066L3.31084 7.71932C3.60372 7.42641 3.60372 6.95154 3.31084 6.65865C3.01792 6.36575 2.54308 6.36575 2.25016 6.65865L0.219656 8.6892C-0.0732188 8.982 -0.0732188 9.4569 0.219656 9.74985L2.25016 11.7803C2.39662 11.9268 2.58855 12 2.7805 12C2.97246 12 3.16438 11.9268 3.31084 11.7803C3.60372 11.4875 3.60372 11.0126 3.31084 10.7196L2.56066 9.96945H10.0137C10.4278 9.96945 10.7637 9.63375 10.7637 9.21945C10.7637 8.8053 10.4278 8.46945 10.0137 8.46945Z"
        fill="#162C4E" />
</svg>
