<svg width="24" height="24" viewBox="0 0 24 24" fill="none" xmlns="http://www.w3.org/2000/svg">
    <path fill-rule="evenodd" clip-rule="evenodd" d="M15.2571 4.32685C15.2659 3.66292 15.017 2.99619 14.5104 2.48959C14.0038 1.98299 13.3371 1.73411 12.6732 1.74294C12.6729 1.74295 12.6734 1.74294 12.6732 1.74294C12.3062 1.74793 11.9393 1.83166 11.6016 1.99411C11.4806 2.05233 11.3632 2.12066 11.2508 2.1991C11.2074 2.22931 11.1517 2.2362 11.1029 2.21597C11.0542 2.19576 11.0196 2.15146 11.0103 2.09951C10.9863 1.96452 10.9516 1.8332 10.9072 1.70645C10.7832 1.35279 10.5836 1.03472 10.3276 0.771716C10.3274 0.771537 10.3278 0.771896 10.3276 0.771716C9.8644 0.295998 9.21644 0 8.5 0C7.78356 0 7.13613 0.295459 6.6729 0.771177C6.67273 0.771356 6.67308 0.770997 6.6729 0.771177C6.41695 1.03418 6.21676 1.35278 6.09283 1.70645C6.04842 1.8332 6.01373 1.96451 5.98967 2.09951C5.98041 2.15146 5.94582 2.19576 5.89708 2.21597C5.8483 2.2362 5.79256 2.2293 5.74924 2.1991C5.63677 2.12066 5.51939 2.05233 5.39837 1.99411C5.06066 1.83166 4.69456 1.74794 4.3276 1.74295C4.32735 1.74295 4.32785 1.74296 4.3276 1.74295C3.66367 1.73412 2.99619 1.98299 2.48959 2.48959C1.98299 2.99619 1.73411 3.66292 1.74294 4.32685C1.74294 4.3266 1.74295 4.3271 1.74294 4.32685C1.74793 4.69381 1.83166 5.06065 1.99411 5.39836C2.05233 5.51939 2.12066 5.63677 2.1991 5.74924C2.22931 5.79256 2.2362 5.8483 2.21597 5.89709C2.19576 5.94583 2.15146 5.98041 2.09951 5.98967C1.96451 6.01373 1.83319 6.04842 1.70644 6.09284C1.35278 6.21676 1.03472 6.41643 0.771715 6.67238C0.771536 6.67255 0.771895 6.6722 0.771715 6.67238C0.295998 7.1356 0 7.78356 0 8.5C0 9.21644 0.29546 9.86387 0.771178 10.3271C0.770999 10.3269 0.771357 10.3273 0.771178 10.3271C1.03418 10.583 1.35278 10.7832 1.70643 10.9072C1.83319 10.9516 1.96451 10.9863 2.09951 11.0103C2.15146 11.0196 2.19576 11.0542 2.21597 11.1029C2.2362 11.1517 2.22931 11.2074 2.1991 11.2508C2.12065 11.3632 2.05232 11.4806 1.99411 11.6016C1.83166 11.9394 1.74794 12.3054 1.74295 12.6724C1.74295 12.6727 1.74296 12.6722 1.74295 12.6724C1.73412 13.3363 1.98299 14.0038 2.48959 14.5104C2.99619 15.017 3.66292 15.2659 4.32685 15.2571C4.3266 15.2571 4.3271 15.2571 4.32685 15.2571C4.69381 15.2521 5.06064 15.1683 5.39835 15.0059C5.51938 14.9477 5.63676 14.8793 5.74924 14.8009C5.79255 14.7707 5.8483 14.7638 5.89708 14.784C5.94583 14.8042 5.98041 14.8485 5.98967 14.9005C6.01373 15.0355 6.04842 15.1668 6.09284 15.2936C6.21677 15.6472 6.41643 15.9653 6.67238 16.2283C6.6722 16.2281 6.67255 16.2285 6.67238 16.2283C7.1356 16.704 7.78356 17 8.5 17C9.21644 17 9.86387 16.7045 10.3271 16.2288C10.3269 16.229 10.3273 16.2286 10.3271 16.2288C10.583 15.9658 10.7832 15.6472 10.9072 15.2936C10.9516 15.1668 10.9863 15.0355 11.0103 14.9005C11.0196 14.8485 11.0542 14.8042 11.1029 14.784C11.1517 14.7638 11.2074 14.7707 11.2508 14.8009C11.3632 14.8793 11.4806 14.9477 11.6017 15.0059C11.9394 15.1683 12.3054 15.2521 12.6724 15.257C12.6722 15.257 12.6727 15.257 12.6724 15.257C13.3363 15.2659 14.0038 15.017 14.5104 14.5104C15.017 14.0038 15.2659 13.3371 15.2571 12.6731C15.2571 12.6729 15.2571 12.6734 15.2571 12.6731C15.2521 12.3062 15.1683 11.9394 15.0059 11.6017C14.9477 11.4806 14.8793 11.3632 14.8009 11.2508C14.7707 11.2074 14.7638 11.1517 14.784 11.1029C14.8042 11.0542 14.8485 11.0196 14.9005 11.0103C15.0355 10.9863 15.1668 10.9516 15.2936 10.9072C15.6472 10.7832 15.9653 10.5836 16.2283 10.3276C16.2281 10.3278 16.2285 10.3274 16.2283 10.3276C16.704 9.8644 17 9.21644 17 8.5C17 7.78356 16.7045 7.13613 16.2288 6.6729C16.2286 6.67273 16.229 6.67308 16.2288 6.6729C15.9658 6.41695 15.6472 6.21677 15.2936 6.09284C15.1668 6.04842 15.0355 6.01373 14.9005 5.98967C14.8485 5.98041 14.8042 5.94583 14.784 5.89708C14.7638 5.8483 14.7707 5.79255 14.8009 5.74924C14.8793 5.63677 14.9477 5.51938 15.0059 5.39835C15.1683 5.06064 15.2521 4.69381 15.2571 4.32685C15.2571 4.3266 15.2571 4.3271 15.2571 4.32685ZM13.3083 3.69167C13.0139 3.39722 12.5537 3.36297 12.2232 3.59347C11.7218 3.94319 11.0559 4.03684 10.4517 3.78631C9.84915 3.53643 9.44412 3.00037 9.33671 2.39784C9.266 2.00115 8.91642 1.7 8.5 1.7C8.08358 1.7 7.734 2.00115 7.66329 2.39784C7.55589 3.00036 7.15085 3.53643 6.54826 3.78631C5.94411 4.03684 5.27819 3.94318 4.77676 3.59347C4.44627 3.36297 3.98613 3.39722 3.69167 3.69167C3.39722 3.98613 3.36297 4.44626 3.59347 4.77676C3.94319 5.2782 4.03683 5.94412 3.78631 6.54826C3.53643 7.15085 3.00036 7.55589 2.39784 7.66329C2.00115 7.734 1.7 8.08358 1.7 8.5C1.7 8.91642 2.00115 9.266 2.39784 9.33671C3.00037 9.44411 3.53643 9.84915 3.78631 10.4517C4.03684 11.0559 3.94319 11.7218 3.59347 12.2232C3.36297 12.5537 3.39722 13.0139 3.69167 13.3083C3.98613 13.6028 4.44626 13.637 4.77676 13.4065C5.27819 13.0568 5.94411 12.9632 6.54826 13.2137C7.15085 13.4636 7.55589 13.9996 7.66329 14.6022C7.734 14.9989 8.08358 15.3 8.5 15.3C8.91642 15.3 9.266 14.9989 9.33671 14.6022C9.44412 13.9996 9.84915 13.4636 10.4517 13.2137C11.0559 12.9632 11.7218 13.0568 12.2232 13.4065C12.5537 13.637 13.0139 13.6028 13.3083 13.3083C13.6028 13.0139 13.637 12.5537 13.4065 12.2232C13.0568 11.7218 12.9632 11.0559 13.2137 10.4517C13.4636 9.84915 13.9996 9.44411 14.6022 9.33671C14.9989 9.266 15.3 8.91642 15.3 8.5C15.3 8.08358 14.9989 7.734 14.6022 7.66329C13.9996 7.55589 13.4636 7.15085 13.2137 6.54827C12.9632 5.94411 13.0568 5.27819 13.4065 4.77676C13.637 4.44626 13.6028 3.98613 13.3083 3.69167Z" fill="#717887"/>
    <path fill-rule="evenodd" clip-rule="evenodd" d="M8.49961 10.1996C9.43849 10.1996 10.1996 9.43849 10.1996 8.49961C10.1996 7.56073 9.43849 6.79961 8.49961 6.79961C7.56073 6.79961 6.79961 7.56073 6.79961 8.49961C6.79961 9.43849 7.56073 10.1996 8.49961 10.1996ZM8.49961 11.8996C10.3774 11.8996 11.8996 10.3774 11.8996 8.49961C11.8996 6.62184 10.3774 5.09961 8.49961 5.09961C6.62184 5.09961 5.09961 6.62184 5.09961 8.49961C5.09961 10.3774 6.62184 11.8996 8.49961 11.8996Z" fill="#717887"/>
</svg>
