<svg width="14" height="14" viewBox="0 0 14 14" fill="none" xmlns="http://www.w3.org/2000/svg">
    <g clip-path="url(#clip0_1_18568)">
        <path fill-rule="evenodd" clip-rule="evenodd" d="M8.14302 5.24917C7.82131 5.26632 7.54661 5.01943 7.52946 4.69772C7.50605 4.25865 7.47742 3.9109 7.44876 3.63915C7.41027 3.2742 7.1861 3.05245 6.86365 3.01559C6.40068 2.96267 5.70008 2.91667 4.66627 2.91667C3.63246 2.91667 2.93186 2.96267 2.46889 3.01559C2.14589 3.05252 1.92235 3.2737 1.88389 3.6381C1.81653 4.27629 1.7496 5.33123 1.7496 7C1.7496 8.66877 1.81653 9.72371 1.88389 10.3619C1.92235 10.7263 2.14589 10.9475 2.46889 10.9844C2.93186 11.0373 3.63246 11.0833 4.66627 11.0833C5.70008 11.0833 6.40068 11.0373 6.86365 10.9844C7.1861 10.9475 7.41027 10.7258 7.44876 10.3609C7.47742 10.0891 7.50605 9.74135 7.52946 9.30228C7.54661 8.98057 7.82131 8.73368 8.14302 8.75083C8.46473 8.76798 8.71162 9.04268 8.69447 9.36439C8.67013 9.82104 8.64002 10.189 8.60899 10.4832C8.51767 11.3491 7.90337 12.0398 6.99615 12.1435C6.47911 12.2026 5.73288 12.25 4.66627 12.25C3.59966 12.25 2.85343 12.2026 2.33639 12.1435C1.42972 12.0399 0.815111 11.3508 0.723665 10.4843C0.650943 9.7953 0.582936 8.69796 0.582936 7C0.582936 5.30204 0.650944 4.2047 0.723666 3.51565C0.815111 2.64921 1.42972 1.96012 2.33639 1.85647C2.85343 1.79737 3.59966 1.75 4.66627 1.75C5.73288 1.75 6.47911 1.79737 6.99615 1.85647C7.90336 1.96018 8.51767 2.65088 8.60899 3.51678C8.64002 3.81095 8.67013 4.17896 8.69447 4.63561C8.71162 4.95732 8.46473 5.23202 8.14302 5.24917Z" fill="white"/>
        <path fill-rule="evenodd" clip-rule="evenodd" d="M10.3785 5.37081C10.1507 5.14301 10.1507 4.77366 10.3785 4.54585C10.6063 4.31805 10.9757 4.31805 11.2035 4.54585L13.2452 6.58752C13.473 6.81533 13.473 7.18467 13.2452 7.41248L11.2035 9.45415C10.9757 9.68195 10.6063 9.68195 10.3785 9.45415C10.1507 9.22634 10.1507 8.85699 10.3785 8.62919L11.4244 7.58333L5.83268 7.58333C5.51052 7.58333 5.24935 7.32217 5.24935 7C5.24935 6.67783 5.51052 6.41667 5.83268 6.41667L11.4244 6.41667L10.3785 5.37081Z" fill="white"/>
    </g>
    <defs>
        <clipPath id="clip0_1_18568">
            <rect width="14" height="14" fill="white" transform="translate(14) rotate(90)"/>
        </clipPath>
    </defs>
</svg>
