<svg width="12" height="12" viewBox="0 0 12 12" fill="none" xmlns="http://www.w3.org/2000/svg">
    <path d="M11.3862 3.39141C10.795 2.18247 9.81766 1.20508 8.60874 0.613795C7.83445 0.219821 6.9797 0.00988165 6.11101 0.000341354C5.24233 -0.00921219 4.38317 0.181885 3.60042 0.55874C2.70611 1.01033 1.92271 1.65408 1.30631 2.4439C0.689913 3.23372 0.255779 4.15006 0.0349828 5.12732C-0.0152742 5.34974 -0.0113256 5.581 0.0464705 5.80158C0.10428 6.02217 0.214254 6.22563 0.367132 6.39483C0.516419 6.56173 0.704263 6.68958 0.914287 6.76723C1.12431 6.84489 1.35014 6.86999 1.57209 6.84036L4.10423 6.5236C4.46606 6.53053 4.81113 6.67735 5.06702 6.93325C5.32292 7.18915 5.46974 7.53424 5.47667 7.89607L5.15992 10.4283C5.13069 10.6501 5.15598 10.8758 5.23361 11.0857C5.31123 11.2956 5.43886 11.4835 5.60542 11.6328C5.77475 11.7856 5.97821 11.8954 6.19873 11.9533C6.41924 12.0111 6.65042 12.0153 6.87289 11.9655C7.85018 11.7449 8.76655 11.3107 9.55637 10.6943C10.3462 10.0779 10.9899 9.29436 11.4413 8.39996C11.8181 7.61714 12.0092 6.75794 11.9997 5.88922C11.9901 5.02051 11.7802 4.16573 11.3862 3.39141ZM10.6007 7.99544C10.2113 8.76368 9.65694 9.43641 8.97722 9.96536C8.29763 10.4943 7.50937 10.8665 6.66903 11.0553C6.59262 11.0732 6.51301 11.0722 6.43705 11.0526C6.36108 11.0329 6.29101 10.9951 6.23286 10.9424C6.17738 10.8933 6.13493 10.8311 6.10929 10.7617C6.08365 10.6921 6.07562 10.6174 6.08592 10.544L6.40593 7.98098L6.40966 7.92313C6.40892 7.30472 6.16294 6.71186 5.72568 6.27458C5.28842 5.83729 4.69556 5.59131 4.07718 5.59057H4.04825L1.45641 5.91433C1.38307 5.92452 1.30837 5.91648 1.23888 5.89093C1.1694 5.86538 1.10727 5.8231 1.05801 5.76785C1.00519 5.70968 0.967353 5.63952 0.947757 5.56343C0.928173 5.48733 0.927431 5.40762 0.945584 5.33118C1.1341 4.49085 1.50613 3.70261 2.03503 3.02294C2.56394 2.34329 3.23661 1.78903 4.00487 1.39988C4.65964 1.07993 5.38034 0.918064 6.10904 0.9273C6.83773 0.936535 7.5541 1.11661 8.20055 1.45305C9.22208 1.95218 10.0479 2.778 10.5471 3.79962C10.8835 4.44606 11.0636 5.16243 11.073 5.89115C11.0822 6.61986 10.9205 7.3406 10.6007 7.99544Z" fill="#162C4E"/>
    <path d="M3.14393 5.12387C3.65921 5.12387 4.07692 4.70614 4.07692 4.19084C4.07692 3.67555 3.65921 3.25781 3.14393 3.25781C2.62865 3.25781 2.21094 3.67555 2.21094 4.19084C2.21094 4.70614 2.62865 5.12387 3.14393 5.12387Z" fill="#162C4E"/>
    <path d="M5.47694 3.72445C5.99221 3.72445 6.40993 3.30673 6.40993 2.79143C6.40993 2.27613 5.99221 1.8584 5.47694 1.8584C4.96166 1.8584 4.54395 2.27613 4.54395 2.79143C4.54395 3.30673 4.96166 3.72445 5.47694 3.72445Z" fill="#162C4E"/>
    <path d="M7.80897 9.78885C8.32419 9.78885 8.74196 9.3712 8.74196 8.85589C8.74196 8.34058 8.32419 7.92285 7.80897 7.92285C7.29369 7.92285 6.87598 8.34058 6.87598 8.85589C6.87598 9.3712 7.29369 9.78885 7.80897 9.78885Z" fill="#162C4E"/>
    <path d="M9.20845 7.45687C9.72361 7.45687 10.1414 7.03914 10.1414 6.52385C10.1414 6.00854 9.72361 5.59082 9.20845 5.59082C8.69316 5.59082 8.27539 6.00854 8.27539 6.52385C8.27539 7.03914 8.69316 7.45687 9.20845 7.45687Z" fill="#162C4E"/>
    <path d="M8.27577 4.65805C8.79106 4.65805 9.20883 4.24033 9.20883 3.72502C9.20883 3.20972 8.79106 2.79199 8.27577 2.79199C7.76049 2.79199 7.34277 3.20972 7.34277 3.72502C7.34277 4.24033 7.76049 4.65805 8.27577 4.65805Z" fill="#162C4E"/>
</svg>
