<svg width="21" height="17" viewBox="0 0 21 17" fill="none" xmlns="http://www.w3.org/2000/svg">
    <path fill-rule="evenodd" clip-rule="evenodd" d="M0 3.4C0 1.52223 1.52223 0 3.4 0H13.6C15.4778 0 17 1.52223 17 3.4V10.4917C17 11.3934 16.6418 12.2582 16.0042 12.8958L12.8958 16.0042C12.2582 16.6418 11.3934 17 10.4917 17H3.4C1.52223 17 0 15.4778 0 13.6V3.4ZM9.35 15.3H3.4C2.46112 15.3 1.7 14.5389 1.7 13.6V3.4C1.7 2.46112 2.46112 1.7 3.4 1.7H13.6C14.5389 1.7 15.3 2.46112 15.3 3.4V9.35H11.9C10.4917 9.35 9.35 10.4917 9.35 11.9V15.3ZM11.05 15.2057C11.29 15.1222 11.5106 14.9852 11.6938 14.8021L14.8021 11.6938C14.9852 11.5106 15.1222 11.29 15.2057 11.05H11.9C11.4306 11.05 11.05 11.4306 11.05 11.9V15.2057Z" fill="#717887"/>
</svg>
