<svg width="193" height="42" viewBox="0 0 193 42" fill="none" xmlns="http://www.w3.org/2000/svg">
    <g clip-path="url(#clip0_1_8029)">
        <path d="M108.547 36.1025H110.168C111.123 36.1025 111.562 36.5627 111.562 37.4968C111.562 38.431 111.133 38.9853 110.168 38.9853H108.93V40.5434H108.547V36.1025ZM110.168 38.6507C110.865 38.6507 111.147 38.2289 111.147 37.5108C111.147 36.7927 110.865 36.4651 110.168 36.4651H108.93V38.6681L110.168 38.6507Z" fill="#6FD943"/>
        <path d="M113.322 38.9084C113.322 37.7686 113.671 37.2876 114.668 37.2876C115.665 37.2876 116.006 37.7686 116.006 38.9084C116.006 40.125 115.738 40.62 114.668 40.62C113.598 40.62 113.322 40.125 113.322 38.9084ZM115.616 38.9084C115.616 37.9394 115.403 37.6187 114.668 37.6187C113.932 37.6187 113.713 37.9394 113.713 38.9084C113.713 39.8775 113.835 40.2853 114.668 40.2853C115.501 40.2853 115.616 39.8949 115.616 38.9084Z" fill="#6FD943"/>
        <path d="M117.738 37.3506H118.122L118.819 40.2229H118.909L119.75 37.4168H120.147L120.984 40.2229H121.074L121.771 37.3506H122.158L121.349 40.5575H120.694L119.934 37.9014L119.171 40.5575H118.509L117.738 37.3506Z" fill="#6FD943"/>
        <path d="M123.908 38.9678C123.908 37.7303 124.455 37.2876 125.236 37.2876C126.017 37.2876 126.491 37.7302 126.491 38.8073V39.1072H124.309C124.309 39.8775 124.529 40.2818 125.201 40.2818C125.55 40.2818 126.073 40.247 126.376 40.2226V40.5294C125.97 40.5808 125.562 40.6111 125.153 40.62C124.197 40.613 123.908 40.0379 123.908 38.9678ZM126.108 38.7935C126.108 37.929 125.839 37.6152 125.236 37.6152C124.633 37.6152 124.299 37.9395 124.295 38.7935H126.108Z" fill="#6FD943"/>
        <path d="M128.502 37.3503H128.878V37.814C129.242 37.5607 129.652 37.3818 130.085 37.2876V37.671C129.661 37.7678 129.254 37.9276 128.878 38.1451V40.5572H128.502V37.3503Z" fill="#6FD943"/>
        <path d="M131.662 38.9678C131.662 37.7303 132.206 37.2876 132.99 37.2876C133.774 37.2876 134.245 37.7302 134.245 38.8073V39.1072H132.063C132.063 39.8775 132.283 40.2818 132.955 40.2818C133.304 40.2818 133.827 40.247 134.126 40.2226V40.5294C133.721 40.5808 133.312 40.6111 132.903 40.62C131.951 40.613 131.662 40.0379 131.662 38.9678ZM133.861 38.7935C133.861 37.929 133.593 37.6152 132.99 37.6152C132.387 37.6152 132.052 37.9395 132.049 38.7935H133.861Z" fill="#6FD943"/>
        <path d="M136.111 38.9918C136.111 37.8694 136.46 37.2873 137.457 37.2873C137.728 37.2941 137.999 37.3221 138.266 37.3709V35.9209H138.645V40.5569H138.273V40.3199C137.952 40.4999 137.594 40.6026 137.227 40.6197C136.721 40.6197 136.111 40.4384 136.111 38.9918ZM138.266 39.9992V37.6986C138.005 37.6568 137.742 37.6323 137.478 37.6254C136.707 37.6254 136.502 38.1064 136.502 38.9918C136.502 40.1247 136.906 40.2746 137.279 40.2746C137.624 40.2567 137.961 40.1627 138.266 39.9992Z" fill="#6FD943"/>
        <path d="M143.346 36.1025H144.921C145.789 36.1025 146.235 36.4512 146.235 37.2215C146.235 37.8176 146.005 38.1069 145.646 38.2673C145.874 38.3252 146.073 38.4622 146.209 38.6539C146.344 38.8456 146.407 39.0793 146.385 39.313C146.385 40.2611 145.845 40.5504 145.026 40.5504H143.346V36.1025ZM144.967 38.1138C145.584 38.1138 145.838 37.8245 145.838 37.2494C145.838 36.6742 145.538 36.4476 144.911 36.4476H143.729V38.1138H144.967ZM145.012 40.2053C145.597 40.2053 145.988 40.0067 145.988 39.3025C145.988 38.5287 145.308 38.4554 144.974 38.4554H143.729V40.1983L145.012 40.2053Z" fill="#6FD943"/>
        <path d="M149.496 40.5575H149.054L148.105 37.3506H148.489L149.346 40.2229H149.58L150.444 37.3506H150.828L149.434 41.9971H149.05L149.496 40.5575Z" fill="#6FD943"/>
        <path d="M96.1955 37.374H1.52205C1.10535 37.3877 0.710943 37.5659 0.425424 37.8697C0.139905 38.1736 -0.0134906 38.5781 -0.00127574 38.9949C-0.0134906 39.4116 0.139905 39.8162 0.425424 40.12C0.710943 40.4238 1.10535 40.6021 1.52205 40.6158H96.1955C96.6122 40.6021 97.0064 40.4238 97.292 40.12C97.5775 39.8162 97.7309 39.4116 97.7187 38.9949C97.7309 38.5781 97.5775 38.1736 97.292 37.8697C97.0064 37.5659 96.6122 37.3877 96.1955 37.374Z" fill="white"/>
        <path d="M181.281 38.783C181.364 38.7835 181.447 38.7674 181.524 38.7359C181.601 38.7044 181.671 38.6581 181.73 38.5994C181.789 38.5408 181.835 38.4711 181.867 38.3943C181.899 38.3176 181.916 38.2352 181.916 38.1521V37.6675C181.916 37.5843 181.899 37.5021 181.867 37.4253C181.835 37.3485 181.789 37.2788 181.73 37.2202C181.671 37.1616 181.601 37.1151 181.524 37.0836C181.447 37.0521 181.364 37.0362 181.281 37.0366C181.114 37.0366 180.954 37.1031 180.835 37.2214C180.717 37.3397 180.65 37.5002 180.65 37.6675V38.1521C180.65 38.3194 180.717 38.4798 180.835 38.5982C180.954 38.7165 181.114 38.783 181.281 38.783Z" fill="white"/>
        <path d="M184.628 36.0151C184.159 35.5086 183.517 35.1964 182.83 35.1401C182.732 35.1401 181.317 35.1401 181.303 35.1401C181.135 35.1401 180.975 35.2067 180.857 35.325C180.738 35.4433 180.672 35.6037 180.672 35.7711C180.672 35.9384 180.738 36.0989 180.857 36.2173C180.975 36.3356 181.135 36.402 181.303 36.402H182.739C183.109 36.4366 183.454 36.6078 183.705 36.8823C183.956 37.1567 184.097 37.5149 184.098 37.887C184.097 38.261 183.956 38.6209 183.702 38.8958C183.448 39.1706 183.101 39.3405 182.728 39.3719H181.303C181.22 39.3719 181.137 39.3883 181.06 39.4202C180.984 39.4522 180.914 39.499 180.855 39.5579C180.797 39.6169 180.75 39.6868 180.719 39.7638C180.687 39.8407 180.671 39.9232 180.672 40.0063C180.672 40.1737 180.738 40.3341 180.857 40.4524C180.975 40.5708 181.135 40.6372 181.303 40.6372C181.303 40.6372 182.718 40.6372 182.809 40.6372C183.502 40.5846 184.149 40.2725 184.622 39.7634C185.095 39.2542 185.359 38.5854 185.36 37.8905C185.362 37.1953 185.101 36.5252 184.628 36.0151Z" fill="white"/>
        <path d="M179.264 39.4477L177.811 38.402C177.742 38.3568 177.664 38.3257 177.582 38.3107C177.501 38.2957 177.417 38.2969 177.336 38.3144C177.255 38.3319 177.178 38.3653 177.11 38.4126C177.042 38.46 176.984 38.5204 176.94 38.5903C176.894 38.6597 176.863 38.7374 176.848 38.8189C176.833 38.9004 176.835 38.9842 176.852 39.0652C176.87 39.1462 176.903 39.223 176.95 39.2911C176.998 39.3591 177.058 39.4171 177.128 39.4617L178.581 40.5074C178.685 40.5757 178.806 40.611 178.93 40.6085C179.035 40.6091 179.139 40.5828 179.232 40.5322C179.325 40.4816 179.403 40.4083 179.46 40.3192C179.504 40.2492 179.534 40.171 179.549 40.0893C179.563 40.0076 179.561 39.9239 179.543 39.843C179.525 39.762 179.491 39.6855 179.443 39.6177C179.395 39.5499 179.335 39.4921 179.264 39.4477Z" fill="#6FD943"/>
        <path d="M179.265 36.3214C179.335 36.2768 179.395 36.2189 179.442 36.1508C179.49 36.0827 179.523 36.006 179.541 35.9249C179.558 35.8439 179.559 35.7603 179.544 35.6787C179.529 35.5972 179.498 35.5194 179.453 35.45C179.409 35.3798 179.351 35.3191 179.283 35.2714C179.215 35.2238 179.138 35.19 179.057 35.1722C178.976 35.1544 178.892 35.1528 178.811 35.1675C178.729 35.1823 178.651 35.2132 178.582 35.2583L176.33 36.7118V35.7637C176.329 35.596 176.262 35.4355 176.143 35.3173C176.024 35.1991 175.863 35.1328 175.695 35.1328C175.528 35.1328 175.368 35.1992 175.249 35.3176C175.131 35.4359 175.064 35.5963 175.064 35.7637V40.0094C175.064 40.1767 175.131 40.3372 175.249 40.4555C175.368 40.5738 175.528 40.6403 175.695 40.6403C175.863 40.6403 176.024 40.5739 176.143 40.4557C176.262 40.3374 176.329 40.177 176.33 40.0094V38.2316L179.265 36.3214Z" fill="#6FD943"/>
        <path d="M161.223 35.1955C161.136 35.1546 161.041 35.1332 160.944 35.1328C160.827 35.1325 160.711 35.1649 160.611 35.2264C160.51 35.288 160.429 35.3763 160.376 35.4814L159.56 37.1719C159.487 37.3227 159.476 37.4965 159.53 37.6552C159.584 37.814 159.699 37.9447 159.85 38.019C160 38.0924 160.173 38.1032 160.331 38.0489C160.489 37.9947 160.62 37.8799 160.693 37.7297L161.512 36.0391C161.585 35.8887 161.595 35.7158 161.541 35.5579C161.487 35.4 161.373 35.2698 161.223 35.1955Z" fill="#6FD943"/>
        <path d="M157.322 35.4858C157.269 35.3804 157.188 35.2919 157.088 35.2303C156.987 35.1687 156.872 35.1365 156.754 35.1372C156.658 35.1376 156.562 35.159 156.475 35.1999C156.4 35.2367 156.334 35.2877 156.279 35.3502C156.225 35.4127 156.183 35.4854 156.156 35.5641C156.13 35.6428 156.119 35.726 156.125 35.8088C156.13 35.8917 156.152 35.9726 156.189 36.047L158.281 40.2891C158.354 40.4393 158.484 40.5542 158.643 40.6084C158.801 40.6627 158.974 40.6519 159.124 40.5785C159.274 40.5049 159.389 40.3747 159.443 40.2165C159.498 40.0583 159.487 39.8852 159.414 39.7349L157.322 35.4858Z" fill="#6FD943"/>
        <path d="M154.459 35.4858C154.406 35.3804 154.325 35.2919 154.225 35.2303C154.124 35.1687 154.008 35.1365 153.891 35.1372C153.795 35.1376 153.701 35.159 153.615 35.1999C153.465 35.2742 153.35 35.405 153.296 35.5637C153.242 35.7225 153.252 35.8962 153.326 36.047L155.417 40.2891C155.491 40.4393 155.621 40.5542 155.779 40.6084C155.938 40.6627 156.111 40.6519 156.261 40.5785C156.411 40.5049 156.526 40.3747 156.58 40.2165C156.634 40.0583 156.624 39.8852 156.55 39.7349L154.459 35.4858Z" fill="#6FD943"/>
        <path d="M165.422 35.1328C164.692 35.1337 163.992 35.4241 163.476 35.9403C162.959 36.4566 162.669 37.1565 162.668 37.8865C162.67 38.6163 162.961 39.3157 163.477 39.8317C163.993 40.3477 164.692 40.6384 165.422 40.6403C166.152 40.6393 166.852 40.349 167.368 39.8327C167.884 39.3165 168.175 38.6166 168.176 37.8865C168.176 37.1562 167.885 36.4558 167.369 35.9393C166.853 35.4229 166.152 35.1328 165.422 35.1328ZM165.422 39.375C165.027 39.374 164.649 39.2169 164.37 38.938C164.091 38.659 163.934 38.281 163.933 37.8865C163.933 37.4915 164.09 37.1125 164.369 36.8328C164.648 36.5531 165.027 36.3955 165.422 36.3946C165.817 36.3946 166.197 36.5518 166.477 36.8316C166.756 37.1114 166.914 37.4909 166.914 37.8865C166.913 38.2816 166.755 38.6602 166.475 38.9392C166.196 39.2183 165.817 39.375 165.422 39.375Z" fill="#6FD943"/>
        <path d="M189.207 35.1328C188.477 35.1328 187.776 35.4229 187.26 35.9393C186.743 36.4558 186.453 37.1562 186.453 37.8865C186.454 38.6166 186.745 39.3165 187.261 39.8327C187.777 40.349 188.477 40.6393 189.207 40.6403C189.937 40.6393 190.637 40.349 191.153 39.8327C191.669 39.3165 191.96 38.6166 191.961 37.8865C191.961 37.1562 191.671 36.4558 191.154 35.9393C190.638 35.4229 189.937 35.1328 189.207 35.1328ZM189.207 39.375C188.812 39.375 188.434 39.2181 188.154 38.939C187.875 38.6599 187.718 38.2813 187.718 37.8865C187.718 37.4915 187.875 37.1125 188.154 36.8328C188.433 36.5531 188.812 36.3955 189.207 36.3946C189.602 36.3955 189.981 36.5531 190.26 36.8328C190.539 37.1125 190.695 37.4915 190.695 37.8865C190.695 38.2813 190.539 38.6599 190.259 38.939C189.98 39.2181 189.602 39.375 189.207 39.375Z" fill="white"/>
        <path d="M173.196 39.4627L172.66 39.1559C172.588 39.1134 172.509 39.0856 172.427 39.074C172.344 39.0624 172.26 39.0672 172.18 39.0883C172.1 39.1094 172.024 39.1463 171.958 39.1968C171.892 39.2473 171.837 39.3104 171.795 39.3825C171.753 39.454 171.725 39.5332 171.713 39.6155C171.702 39.6979 171.707 39.7817 171.728 39.8622C171.749 39.9426 171.786 40.018 171.836 40.0841C171.887 40.1502 171.95 40.2055 172.022 40.247L172.559 40.5537C172.686 40.63 172.837 40.6572 172.984 40.6304C173.075 40.615 173.161 40.5799 173.237 40.5275C173.313 40.4751 173.376 40.4067 173.423 40.3271C173.507 40.1823 173.53 40.0102 173.488 39.8483C173.445 39.6864 173.341 39.5477 173.196 39.4627Z" fill="#6FD943"/>
        <path d="M172.275 38.758C172.732 38.7229 173.159 38.5169 173.471 38.181C173.783 37.8451 173.957 37.4039 173.959 36.9454C173.957 36.4894 173.785 36.0505 173.476 35.7151C173.167 35.3797 172.743 35.172 172.289 35.1328H169.898C169.729 35.1328 169.568 35.1996 169.449 35.3186C169.33 35.4376 169.263 35.5989 169.263 35.7672C169.263 35.8503 169.28 35.9327 169.312 36.0094C169.343 36.0862 169.39 36.1559 169.449 36.2145C169.508 36.2732 169.578 36.3196 169.655 36.3511C169.732 36.3826 169.815 36.3986 169.898 36.3981H172.202C172.337 36.4135 172.463 36.478 172.554 36.5795C172.645 36.681 172.696 36.8124 172.697 36.9489C172.696 37.0859 172.644 37.2178 172.553 37.3193C172.461 37.4209 172.334 37.485 172.198 37.4996H169.898C169.76 37.4994 169.626 37.5438 169.516 37.6261C169.406 37.7085 169.326 37.8243 169.288 37.9562C169.27 38.0185 169.26 38.0831 169.26 38.148V40.0094C169.26 40.1767 169.326 40.3372 169.445 40.4555C169.563 40.5738 169.723 40.6403 169.891 40.6403C169.974 40.6407 170.056 40.6248 170.133 40.5933C170.21 40.5618 170.28 40.5153 170.339 40.4567C170.398 40.3981 170.445 40.3284 170.477 40.2516C170.509 40.1748 170.525 40.0925 170.525 40.0094V38.7615L172.275 38.758Z" fill="#6FD943"/>
        <path d="M189.498 32.5783C189.494 32.3869 189.529 32.1965 189.6 32.0187C189.671 31.8409 189.777 31.6792 189.912 31.5435C190.047 31.4078 190.208 31.3007 190.386 31.2288C190.563 31.1568 190.753 31.1215 190.945 31.1248C191.137 31.121 191.327 31.1559 191.505 31.2277C191.683 31.2994 191.845 31.4064 191.98 31.5422C192.115 31.678 192.222 31.8398 192.293 32.0179C192.365 32.1959 192.399 32.3866 192.395 32.5783C192.399 32.7699 192.365 32.9604 192.293 33.1383C192.222 33.3162 192.115 33.4777 191.98 33.6133C191.844 33.7488 191.683 33.8554 191.505 33.9268C191.327 33.9981 191.137 34.0327 190.945 34.0284C190.754 34.0317 190.564 33.9965 190.387 33.9247C190.209 33.853 190.048 33.7462 189.913 33.6109C189.778 33.4755 189.672 33.3143 189.601 33.1369C189.529 32.9594 189.495 32.7695 189.498 32.5783ZM192.179 32.5783C192.182 32.4149 192.152 32.2525 192.091 32.1007C192.03 31.949 191.94 31.8109 191.825 31.6946C191.71 31.5784 191.573 31.4863 191.422 31.4238C191.27 31.3612 191.108 31.3294 190.945 31.3304C190.782 31.3294 190.62 31.3612 190.469 31.4238C190.318 31.4863 190.181 31.5786 190.067 31.6949C189.952 31.8112 189.862 31.9493 189.801 32.101C189.741 32.2527 189.711 32.415 189.714 32.5783C189.712 32.7412 189.741 32.9029 189.802 33.054C189.863 33.2052 189.953 33.3426 190.068 33.4583C190.183 33.5739 190.319 33.6655 190.47 33.7275C190.621 33.7895 190.782 33.8207 190.945 33.8193C191.108 33.8212 191.27 33.7903 191.421 33.7285C191.572 33.6667 191.709 33.5753 191.824 33.4596C191.939 33.3439 192.03 33.2063 192.091 33.0549C192.152 32.9035 192.182 32.7415 192.179 32.5783ZM190.349 31.7766H190.927C191.335 31.7766 191.558 31.8986 191.558 32.2715C191.576 32.3754 191.555 32.4821 191.5 32.5718C191.445 32.6615 191.359 32.7282 191.259 32.7596L191.586 33.3836H191.304L190.99 32.7909H190.617V33.3836H190.349V31.7766ZM190.99 32.5714C191.203 32.5714 191.297 32.4981 191.297 32.282C191.297 32.0659 191.175 31.9962 190.914 31.9962H190.61V32.5714H190.99Z" fill="#6FD943"/>
        <path d="M102.81 10.2871C102.409 10.2867 102.013 10.3651 101.643 10.518C101.273 10.6709 100.936 10.8952 100.653 11.1781C100.37 11.4611 100.145 11.7972 99.9919 12.167C99.8386 12.5369 99.7598 12.9333 99.7598 13.3337C99.7598 14.1426 100.081 14.9183 100.653 15.4903C101.225 16.0623 102.001 16.3837 102.81 16.3837H106.083C106.892 16.3837 107.668 16.0623 108.24 15.4903C108.812 14.9183 109.133 14.1426 109.133 13.3337C109.133 12.9333 109.054 12.5369 108.901 12.167C108.747 11.7972 108.523 11.4611 108.239 11.1781C107.956 10.8952 107.62 10.6709 107.25 10.518C106.88 10.3651 106.483 10.2867 106.083 10.2871H102.81Z" fill="#6FD943"/>
        <path d="M107.654 20.4547H97.7723V6.16301H107.654C108.463 6.16301 109.239 5.84169 109.811 5.2697C110.383 4.6977 110.705 3.92189 110.705 3.11297C110.705 2.71259 110.626 2.31616 110.472 1.94631C110.319 1.57645 110.094 1.24045 109.811 0.957509C109.528 0.674564 109.191 0.450188 108.821 0.297289C108.451 0.14439 108.055 0.0659502 107.654 0.0664082H94.9629C94.8828 0.0664082 94.8059 0.0664082 94.7223 0.0664082C94.3219 0.066408 93.9255 0.145329 93.5557 0.298651C93.1858 0.451973 92.8497 0.676708 92.5668 0.959976C92.2839 1.24325 92.0596 1.57951 91.9067 1.94954C91.7539 2.31957 91.6753 2.71608 91.6758 3.11645V23.5884C91.6753 23.9887 91.7539 24.3852 91.9067 24.7553C92.0596 25.1253 92.2839 25.4616 92.5668 25.7448C92.8497 26.0281 93.1858 26.2528 93.5557 26.4062C93.9255 26.5595 94.3219 26.6384 94.7223 26.6384C94.9331 26.6378 95.1435 26.6156 95.3498 26.5722H107.654C108.463 26.5722 109.239 26.2509 109.811 25.6789C110.383 25.1069 110.705 24.3311 110.705 23.5221C110.707 23.1201 110.63 22.7217 110.477 22.3496C110.325 21.9776 110.101 21.6393 109.817 21.3542C109.534 21.0691 109.197 20.8429 108.826 20.6885C108.455 20.5341 108.056 20.4546 107.654 20.4547Z" fill="#6FD943"/>
        <path d="M126.613 8.89551C125.804 8.89551 125.028 9.21683 124.456 9.78882C123.884 10.3608 123.562 11.1366 123.562 11.9456V23.5705C123.563 24.3795 123.884 25.1553 124.456 25.7273C125.028 26.2993 125.804 26.6206 126.613 26.6206C127.421 26.6206 128.197 26.2993 128.769 25.7273C129.341 25.1553 129.663 24.3795 129.663 23.5705V11.9456C129.663 11.1366 129.341 10.3608 128.769 9.78882C128.197 9.21683 127.421 8.89551 126.613 8.89551Z" fill="#6FD943"/>
        <path d="M134.729 0.114258H118.478C118.078 0.114258 117.681 0.193179 117.312 0.3465C116.942 0.499822 116.606 0.724557 116.323 1.00783C116.04 1.29109 115.816 1.62736 115.663 1.99739C115.51 2.36742 115.431 2.76393 115.432 3.1643C115.432 3.9723 115.753 4.74723 116.324 5.31857C116.895 5.88991 117.67 6.21086 118.478 6.21086H134.729C135.537 6.21086 136.312 5.88991 136.883 5.31857C137.454 4.74723 137.775 3.9723 137.775 3.1643C137.776 2.76393 137.697 2.36742 137.544 1.99739C137.392 1.62736 137.167 1.29109 136.884 1.00783C136.601 0.724557 136.265 0.499822 135.896 0.3465C135.526 0.193179 135.129 0.114258 134.729 0.114258Z" fill="#6FD943"/>
        <path d="M11.177 8.89551C10.7763 8.89505 10.3795 8.97361 10.0092 9.12673C9.63898 9.27985 9.30248 9.50449 9.01916 9.7878C8.73585 10.0711 8.51121 10.4075 8.35809 10.7778C8.20497 11.148 8.1265 11.5449 8.12696 11.9456V23.5705C8.12696 24.3795 8.44819 25.1553 9.02018 25.7273C9.59218 26.2993 10.3681 26.6206 11.177 26.6206C11.5774 26.6206 11.9737 26.5417 12.3436 26.3883C12.7134 26.235 13.0495 26.0103 13.3325 25.727C13.6154 25.4437 13.8398 25.1076 13.9927 24.7375C14.1456 24.3675 14.2239 23.9709 14.2235 23.5705V11.9456C14.2239 11.5452 14.1456 11.1486 13.9927 10.7786C13.8398 10.4085 13.6154 10.0723 13.3325 9.78899C13.0495 9.50572 12.7134 9.28107 12.3436 9.12775C11.9737 8.97443 11.5774 8.89551 11.177 8.89551Z" fill="#6FD943"/>
        <path d="M19.2952 0.114258H3.04809C2.23917 0.114258 1.46344 0.435661 0.891445 1.00766C0.31945 1.57965 -0.00195312 2.35538 -0.00195312 3.1643C-0.00195339 3.56468 0.0768825 3.9612 0.230204 4.33105C0.383526 4.7009 0.608346 5.0369 0.891615 5.31985C1.17488 5.60279 1.51115 5.82708 1.88118 5.97998C2.25121 6.13288 2.64772 6.21132 3.04809 6.21086H19.2952C19.6956 6.21132 20.0921 6.13288 20.4621 5.97998C20.8321 5.82708 21.1684 5.60279 21.4517 5.31985C21.7349 5.0369 21.9598 4.7009 22.1131 4.33105C22.2664 3.9612 22.3452 3.56468 22.3452 3.1643C22.3452 2.35538 22.024 1.57965 21.452 1.00766C20.88 0.435661 20.1041 0.114258 19.2952 0.114258Z" fill="#6FD943"/>
        <path d="M85.5505 20.8767L78.5405 15.8188C78.2042 15.6016 77.8283 15.4528 77.4344 15.381C77.0404 15.3091 76.6362 15.3156 76.2448 15.4001C75.8534 15.4846 75.4825 15.6454 75.1533 15.8734C74.8241 16.1014 74.5431 16.392 74.3263 16.7287C74.1089 17.0648 73.9598 17.4405 73.8877 17.8343C73.8156 18.2281 73.8219 18.6322 73.9061 19.0236C73.9902 19.415 74.1507 19.786 74.3784 20.1153C74.606 20.4446 74.8962 20.7258 75.2326 20.9429L82.246 26.0008C82.7367 26.3198 83.3095 26.4894 83.8948 26.4888C84.405 26.4898 84.9072 26.3627 85.3555 26.119C85.8037 25.8754 86.1836 25.5231 86.4603 25.0945C86.8983 24.4144 87.0485 23.5881 86.8779 22.7974C86.7074 22.0066 86.2299 21.3158 85.5505 20.8767Z" fill="#6FD943"/>
        <path d="M85.5495 5.78988C85.8862 5.57308 86.1766 5.29206 86.4046 4.96286C86.6326 4.63366 86.7934 4.26275 86.8779 3.87134C86.9624 3.47994 86.969 3.07572 86.8972 2.68179C86.8253 2.28787 86.6765 1.91201 86.4592 1.57564C86.2424 1.23898 85.9614 0.948327 85.6322 0.720366C85.303 0.492405 84.9321 0.331612 84.5407 0.247115C84.1493 0.162618 83.7451 0.15603 83.3512 0.227882C82.9572 0.299734 82.5814 0.448572 82.245 0.665816L71.3797 7.67573V3.09887C71.3797 2.28995 71.0585 1.51414 70.4865 0.942141C69.9145 0.370146 69.1386 0.0488281 68.3297 0.0488281C67.9293 0.0488279 67.533 0.127749 67.1631 0.281071C66.7932 0.434393 66.4572 0.659128 66.1742 0.942396C65.8913 1.22566 65.6671 1.56193 65.5142 1.93196C65.3613 2.30199 65.2827 2.6985 65.2832 3.09887V23.5708C65.2827 23.9711 65.3613 24.3677 65.5142 24.7378C65.6671 25.1078 65.8913 25.444 66.1742 25.7273C66.4572 26.0105 66.7932 26.2353 67.1631 26.3886C67.533 26.5419 67.9293 26.6208 68.3297 26.6208C69.1386 26.6208 69.9145 26.2995 70.4865 25.7275C71.0585 25.1555 71.3797 24.3797 71.3797 23.5708V14.9295L85.5495 5.78988Z" fill="#6FD943"/>
        <path d="M57.5092 20.5214C56.7946 20.5214 51.3011 20.5214 50.5726 20.4935C48.7877 20.3256 47.1291 19.4995 45.9197 18.176C44.7103 16.8526 44.0366 15.1265 44.0298 13.3338C44.0328 11.5302 44.7117 9.79335 45.9327 8.46593C47.1536 7.13852 48.8278 6.317 50.6248 6.16351C51.3429 6.16351 57.0039 6.14257 57.5058 6.14257C58.3147 6.14257 59.0905 5.82125 59.6625 5.24926C60.2345 4.67727 60.5559 3.90145 60.5559 3.09253C60.5559 2.2836 60.2345 1.50787 59.6625 0.935878C59.0905 0.363884 58.3147 0.0424805 57.5058 0.0424805C57.4396 0.0424805 50.6736 0.0425145 50.2414 0.0773722C46.8998 0.333259 43.7774 1.83842 41.4958 4.29314C39.2142 6.74786 37.9409 9.97199 37.9297 13.3233C37.9256 16.6734 39.1911 19.9005 41.4713 22.3549C43.7285 24.7989 46.8238 26.3025 50.1403 26.5657C50.6178 26.6041 57.4361 26.611 57.5058 26.611C58.3147 26.611 59.0905 26.2897 59.6625 25.7177C60.2345 25.1457 60.5559 24.3699 60.5559 23.5609C60.5531 22.7544 60.2309 21.9818 59.6599 21.4122C59.089 20.8426 58.3157 20.5223 57.5092 20.5214Z" fill="#6FD943"/>
        <path d="M30.1536 6.85975C29.3446 6.85975 28.5689 6.53843 27.9969 5.96643C27.4249 5.39444 27.1035 4.61862 27.1035 3.8097V3.11255C27.1035 2.30362 27.4249 1.52781 27.9969 0.955813C28.5689 0.383818 29.3446 0.0625 30.1536 0.0625C30.9625 0.0625 31.7384 0.383818 32.3104 0.955813C32.8824 1.52781 33.2036 2.30362 33.2036 3.11255V3.8097C33.2036 4.61862 32.8824 5.39444 32.3104 5.96643C31.7384 6.53843 30.9625 6.85975 30.1536 6.85975Z" fill="#6FD943"/>
        <path d="M30.1243 8.89551C29.7236 8.89505 29.3268 8.97361 28.9565 9.12673C28.5862 9.27985 28.2499 9.50449 27.9666 9.7878C27.6833 10.0711 27.4586 10.4075 27.3055 10.7778C27.1524 11.148 27.0738 11.5449 27.0742 11.9456V23.5705C27.0742 24.3795 27.3956 25.1553 27.9676 25.7273C28.5396 26.2993 29.3153 26.6206 30.1243 26.6206C30.5246 26.6206 30.9212 26.5417 31.291 26.3883C31.6609 26.235 31.9968 26.0103 32.2797 25.727C32.5627 25.4437 32.787 25.1076 32.9399 24.7375C33.0928 24.3675 33.1714 23.9709 33.1709 23.5705V11.9456C33.1714 11.5452 33.0928 11.1486 32.9399 10.7786C32.787 10.4085 32.5627 10.0723 32.2797 9.78899C31.9968 9.50572 31.6609 9.28107 31.291 9.12775C30.9212 8.97443 30.5246 8.89551 30.1243 8.89551Z" fill="#6FD943"/>
        <path d="M145.458 12.089C145.704 12.0919 145.945 12.014 146.142 11.8673C146.34 11.7207 146.484 11.5132 146.553 11.2768C146.947 9.87606 147.759 8.62865 148.88 7.70076C150.001 6.77288 151.378 6.20861 152.827 6.08306C153.524 6.08306 159.161 6.05864 159.659 6.05864C160.463 6.05864 161.233 5.73953 161.801 5.17145C162.369 4.60338 162.689 3.8329 162.689 3.02953C162.688 2.22676 162.368 1.45722 161.8 0.8899C161.232 0.322582 160.462 0.00390572 159.659 0.00390625C159.593 0.00390625 152.876 0.00385519 152.444 0.0387129C149.554 0.261352 146.816 1.42604 144.651 3.35402C142.487 5.282 141.014 7.86686 140.46 10.7122C140.428 10.8802 140.434 11.0531 140.476 11.2187C140.519 11.3842 140.598 11.5383 140.707 11.6698C140.816 11.8014 140.953 11.9071 141.108 11.9796C141.263 12.0521 141.432 12.0895 141.603 12.089H145.458Z" fill="white"/>
        <path d="M159.159 10.2235C158.459 10.3758 157.833 10.7661 157.388 11.3279C156.943 11.8897 156.707 12.5884 156.719 13.305V20.3253C155.022 20.3253 153.164 20.3254 152.763 20.3044C151.48 20.1868 150.252 19.7251 149.209 18.9681C148.166 18.2111 147.347 17.1867 146.837 16.003C146.745 15.8041 146.597 15.6362 146.412 15.5198C146.226 15.4035 146.011 15.3437 145.791 15.3477H141.828C141.65 15.3478 141.473 15.389 141.313 15.4683C141.153 15.5475 141.014 15.6626 140.906 15.8046C140.797 15.9466 140.723 16.1117 140.689 16.287C140.655 16.4622 140.662 16.643 140.709 16.8152C141.275 18.8106 142.305 20.6439 143.714 22.1658C145.955 24.594 149.03 26.0877 152.324 26.3487C152.798 26.387 159.574 26.3941 159.644 26.3941C160.198 26.3934 160.742 26.2406 161.216 25.9524C161.69 25.6641 162.076 25.2515 162.332 24.7593C162.614 24.2886 162.763 23.75 162.764 23.201V13.1969C162.764 12.7504 162.665 12.3095 162.474 11.9057C162.284 11.5018 162.007 11.1451 161.662 10.861C161.318 10.5768 160.915 10.3724 160.482 10.2622C160.049 10.152 159.598 10.1388 159.159 10.2235Z" fill="white"/>
        <path d="M179.036 0C175.535 0.00368916 172.178 1.39585 169.702 3.87119C167.226 6.34654 165.833 9.70292 165.828 13.204C165.832 16.7058 167.224 20.063 169.701 22.5391C172.177 25.0152 175.534 26.408 179.036 26.4117C182.537 26.408 185.895 25.0152 188.371 22.5391C190.847 20.063 192.239 16.7058 192.243 13.204C192.239 9.70292 190.846 6.34654 188.37 3.87119C185.894 1.39585 182.537 0.00368916 179.036 0ZM179.036 20.3499C177.141 20.348 175.325 19.5945 173.986 18.2547C172.647 16.9149 171.894 15.0983 171.893 13.204C171.895 11.3103 172.648 9.49477 173.987 8.15572C175.326 6.81668 177.142 6.06356 179.036 6.06171C180.93 6.06355 182.746 6.81652 184.085 8.15547C185.425 9.49442 186.179 11.31 186.182 13.204C186.18 15.0987 185.426 16.9152 184.087 18.2549C182.747 19.5946 180.93 20.348 179.036 20.3499Z" fill="white"/>
    </g>
    <defs>
        <clipPath id="clip0_1_8029">
            <rect width="192.397" height="42" fill="white"/>
        </clipPath>
    </defs>
</svg>
