<svg width="12" height="12" viewBox="0 0 12 12" fill="none" xmlns="http://www.w3.org/2000/svg">
    <path fill-rule="evenodd" clip-rule="evenodd" d="M5.20696 1.58579C5.58203 1.21071 6.09074 1 6.62117 1H9.49985C10.3283 1 10.9999 1.67157 10.9999 2.5V5.37868C10.9999 5.90911 10.7891 6.41782 10.4141 6.79289L6.56051 10.6464C5.97472 11.2322 5.02498 11.2322 4.43919 10.6464L1.3534 7.56066C0.767615 6.97487 0.767617 6.02512 1.3534 5.43934L5.20696 1.58579ZM6.62117 2C6.35595 2 6.1016 2.10536 5.91406 2.29289L2.06051 6.14645C1.86525 6.34171 1.86525 6.65829 2.06051 6.85355L5.1463 9.93934C5.34156 10.1346 5.65814 10.1346 5.8534 9.93934L9.70696 6.08579C9.89449 5.89825 9.99985 5.6439 9.99985 5.37868V2.5C9.99985 2.22386 9.77599 2 9.49985 2H6.62117Z" fill="#162C4E"/>
    <path d="M1.79297 5.00008L2.50008 4.29297L7.70718 9.50008L7.00008 10.2072L1.79297 5.00008Z" fill="#162C4E"/>
    <path fill-rule="evenodd" clip-rule="evenodd" d="M7.5 5C7.77614 5 8 4.77614 8 4.5C8 4.22386 7.77614 4 7.5 4C7.22386 4 7 4.22386 7 4.5C7 4.77614 7.22386 5 7.5 5ZM7.5 6C8.32843 6 9 5.32843 9 4.5C9 3.67157 8.32843 3 7.5 3C6.67157 3 6 3.67157 6 4.5C6 5.32843 6.67157 6 7.5 6Z" fill="#162C4E"/>
</svg>
