<svg width="16" height="19" viewBox="0 0 16 19" fill="none" xmlns="http://www.w3.org/2000/svg">
    <path fill-rule="evenodd" clip-rule="evenodd" d="M7.95453 10.272C4.96718 10.272 2.54545 12.6937 2.54545 15.6811V17.2265C2.54545 17.6533 2.19949 17.9993 1.77273 17.9993C1.34596 17.9993 1 17.6533 1 17.2265V15.6811C1 11.8402 4.11365 8.72656 7.95453 8.72656C11.7954 8.72656 14.9091 11.8402 14.9091 15.6811V17.2265C14.9091 17.6533 14.5631 17.9993 14.1363 17.9993C13.7096 17.9993 13.3636 17.6533 13.3636 17.2265V15.6811C13.3636 12.6937 10.9419 10.272 7.95453 10.272Z" fill="#172C4E" stroke="#172C4E" stroke-width="0.3" stroke-linecap="round"/>
    <path fill-rule="evenodd" clip-rule="evenodd" d="M7.95471 8.72726C9.66177 8.72726 11.0456 7.34341 11.0456 5.63635C11.0456 3.9293 9.66177 2.54545 7.95471 2.54545C6.24766 2.54545 4.86381 3.9293 4.86381 5.63635C4.86381 7.34341 6.24766 8.72726 7.95471 8.72726ZM7.95471 10.2727C10.5153 10.2727 12.5911 8.19694 12.5911 5.63635C12.5911 3.07577 10.5153 1 7.95471 1C5.39413 1 3.31836 3.07577 3.31836 5.63635C3.31836 8.19694 5.39413 10.2727 7.95471 10.2727Z" fill="#172C4E" stroke="#172C4E" stroke-width="0.3"/>
</svg>
