<svg width="12" height="12" viewBox="0 0 12 12" fill="none" xmlns="http://www.w3.org/2000/svg">
    <path d="M5.5774 6.41813C3.68377 6.41813 2.14258 4.97824 2.14258 3.20906C2.14258 1.43989 3.68377 0 5.5774 0C7.47104 0 9.01218 1.43989 9.01218 3.20906C9.01218 4.97824 7.47104 6.41813 5.5774 6.41813ZM5.5774 0.837143C4.17957 0.837143 3.03861 1.90311 3.03861 3.20906C3.03861 4.51501 4.17957 5.58098 5.5774 5.58098C6.97522 5.58098 8.11618 4.51501 8.11618 3.20906C8.11618 1.90311 6.97522 0.837143 5.5774 0.837143Z" fill="black"/>
    <path d="M7.86032 12.0003C7.63332 12.0003 7.41827 11.922 7.26296 11.777C7.07777 11.6039 6.99414 11.3529 7.03596 11.0905L7.14946 10.3371C7.17933 10.1418 7.30477 9.91296 7.4541 9.76782L9.56879 7.79218C10.417 6.99967 11.1637 7.45173 11.5281 7.79218C11.8388 8.08233 12 8.39494 12 8.70743C12 9.02553 11.8448 9.32143 11.5281 9.61719L9.41344 11.5928C9.2641 11.7324 9.01325 11.8495 8.80421 11.8775L7.99765 11.9834C7.94985 11.9945 7.9081 12.0003 7.86032 12.0003ZM10.5424 8.1884C10.4349 8.1884 10.3394 8.25542 10.2019 8.38371L8.0873 10.3595C8.06939 10.3762 8.03953 10.432 8.03953 10.4543L7.932 11.1519L8.67864 11.0515C8.70255 11.0459 8.76226 11.018 8.78016 11.0013L10.8949 9.02553C10.9904 8.93631 11.104 8.80789 11.104 8.70743C11.104 8.62369 11.0322 8.50651 10.8949 8.38371C10.7516 8.2498 10.6441 8.1884 10.5424 8.1884Z" fill="black"/>
    <path d="M10.9074 10.0278C10.8656 10.0278 10.8237 10.0222 10.7879 10.0111C9.99938 9.80457 9.37211 9.21865 9.15118 8.48186C9.08546 8.25872 9.22277 8.02985 9.46174 7.96845C9.70071 7.90706 9.94555 8.03543 10.0113 8.25872C10.1487 8.71635 10.537 9.07913 11.0268 9.20742C11.2658 9.26882 11.4031 9.50319 11.3374 9.72083C11.2837 9.90503 11.1044 10.0278 10.9074 10.0278Z" fill="black"/>
    <path d="M0.448025 12.0007C0.203101 12.0007 0 11.8109 0 11.5821C0 9.19901 2.50296 7.25684 5.57939 7.25684C6.2305 7.25684 6.87565 7.34613 7.47899 7.51355C7.71793 7.58053 7.84935 7.81494 7.77767 8.03259C7.70598 8.2558 7.45509 8.3786 7.22212 8.31158C6.69645 8.16657 6.14687 8.08845 5.57939 8.08845C2.99876 8.08845 0.89605 9.65102 0.89605 11.5765C0.89605 11.8109 0.692948 12.0007 0.448025 12.0007Z" fill="black"/>
</svg>
