<svg width="19" height="19" viewBox="0 0 19 19" fill="none" xmlns="http://www.w3.org/2000/svg">
    <path fill-rule="evenodd" clip-rule="evenodd"
        d="M7.12412 8.73154C7.14061 9.16845 6.79979 9.53601 6.36288 9.55251C5.3779 9.58969 4.65899 9.64192 4.14355 9.69327C3.63594 9.74383 3.33052 10.0503 3.27831 10.4774C3.21673 10.9811 3.16634 11.6917 3.16634 12.6668C3.16634 13.6418 3.21674 14.3524 3.27831 14.8561C3.3305 15.283 3.63606 15.5896 4.14379 15.6402C5.10055 15.7355 6.75353 15.8334 9.49968 15.8334C12.2458 15.8334 13.8988 15.7355 14.8556 15.6402C15.3633 15.5896 15.6688 15.283 15.721 14.8561C15.7826 14.3524 15.833 13.6418 15.833 12.6668C15.833 11.6917 15.7826 10.9811 15.721 10.4774C15.6688 10.0503 15.3634 9.74383 14.8558 9.69327C14.3404 9.64192 13.6215 9.58969 12.6365 9.55251C12.1996 9.53601 11.8587 9.16845 11.8752 8.73154C11.8917 8.29463 12.2593 7.95381 12.6962 7.9703C13.7072 8.00847 14.4591 8.06258 15.0128 8.11773C16.1766 8.23368 17.1411 9.04514 17.2927 10.2853C17.3632 10.8626 17.4163 11.6382 17.4163 12.6668C17.4163 13.6953 17.3632 14.4709 17.2927 15.0482C17.1411 16.2885 16.1762 17.0998 15.0125 17.2158C13.9879 17.3178 12.2796 17.4168 9.49968 17.4168C6.71972 17.4168 5.01146 17.3178 3.98685 17.2158C2.82319 17.0998 1.8583 16.2885 1.70668 15.0482C1.63611 14.4709 1.58301 13.6953 1.58301 12.6668C1.58301 11.6382 1.6361 10.8626 1.70667 10.2853C1.85827 9.04514 2.82272 8.23368 3.9866 8.11773C4.54023 8.06258 5.29216 8.00847 6.30315 7.9703C6.74006 7.95381 7.10762 8.29463 7.12412 8.73154Z"
        fill="#ffffff" />
    <path fill-rule="evenodd" clip-rule="evenodd"
        d="M7.28896 5.70554C6.97979 6.01471 6.47854 6.01471 6.16937 5.70554C5.86021 5.39638 5.86021 4.89512 6.16937 4.58596L8.94021 1.81513C9.24937 1.50596 9.75063 1.50596 10.0598 1.81513L12.8306 4.58596C13.1398 4.89512 13.1398 5.39638 12.8306 5.70554C12.5215 6.01471 12.0202 6.01471 11.711 5.70554L10.2917 4.28617L10.2917 11.8749C10.2917 12.3121 9.93722 12.6666 9.5 12.6666C9.06277 12.6666 8.70833 12.3121 8.70833 11.8749L8.70833 4.28617L7.28896 5.70554Z"
        fill="#ffffff" />
</svg>
