<svg width="9" height="8" viewBox="0 0 9 8" fill="none" xmlns="http://www.w3.org/2000/svg">
<path id="Shape" fill-rule="evenodd" clip-rule="evenodd" d="M0.792893 7.70711C0.402369 7.31658 0.402369 6.68342 0.792893 6.29289L3.08579 4L0.792893 1.70711C0.402369 1.31658 0.402369 0.683418 0.792893 0.292894C1.18342 -0.0976305 1.81658 -0.0976306 2.20711 0.292894L4.5 2.58579L6.79289 0.292894C7.18342 -0.0976308 7.81658 -0.0976308 8.20711 0.292894C8.59763 0.683417 8.59763 1.31658 8.20711 1.70711L5.91421 4L8.20711 6.29289C8.59763 6.68342 8.59763 7.31658 8.20711 7.70711C7.81658 8.09763 7.18342 8.09763 6.79289 7.70711L4.5 5.41421L2.20711 7.70711C1.81658 8.09763 1.18342 8.09763 0.792893 7.70711Z" fill="white"/>
</svg>
